<svg width="527" height="567" viewBox="0 0 527 567" fill="none" xmlns="http://www.w3.org/2000/svg">
<g filter="url(#filter0_dd)">
<path d="M168.965 223.381C168.965 311.81 88.0061 458.357 88.0061 458.357C88.0061 458.357 0 312.798 0 224.369C0 135.94 58.6262 45.3155 88.2199 0C119.906 53.8751 168.965 134.952 168.965 223.381Z" transform="matrix(0.383026 0.321389 -0.467692 0.176817 221.646 8.67053)" fill="#4C7829"/>
<path d="M168.705 427.639C168.705 598.49 142.406 726.63 88.0846 882.28C39.7327 748.032 0 600.399 0 429.547C0 258.696 53.9469 87.5529 83.4953 -9.63312e-05C115.133 104.091 168.705 256.787 168.705 427.639Z" transform="matrix(0.334063 -0.372024 0.160133 0.473664 13.0922 149.062)" fill="#4C7829"/>
<path d="M168.705 431.433C168.705 602.285 142.222 730.398 87.9012 886.048C39.5493 751.8 0 604.193 0 433.341C0 262.49 58.4393 87.553 87.9877 0C119.625 104.091 168.705 260.582 168.705 431.433Z" transform="matrix(0.334063 -0.372024 0.160133 0.473664 102.485 117.762)" fill="#ACC143"/>
<path d="M168.965 223.381C168.965 311.81 143.547 378.111 89.142 458.672C40.7159 389.188 0 312.798 0 224.369C0 135.94 58.6262 45.3155 88.2199 0C119.906 53.8751 168.965 134.952 168.965 223.381Z" transform="matrix(0.383026 0.321389 -0.467692 0.176817 454.108 395)" fill="#ACC143"/>
<path d="M168.965 223.381C168.965 311.81 142.625 378.133 88.2199 458.694C39.7938 389.21 0 312.798 0 224.369C0 135.94 58.6262 45.3155 88.2199 0C119.906 53.8751 168.965 134.952 168.965 223.381Z" transform="matrix(0.383026 0.321389 -0.467692 0.176817 268.294 151.671)" fill="#4C7829"/>
</g>
<defs>
<filter id="filter0_dd" x="38.9847" y="35.8127" width="450.914" height="502.384" filterUnits="userSpaceOnUse" color-interpolation-filters="sRGB">
<feFlood flood-opacity="0" result="BackgroundImageFix"/>
<feColorMatrix in="SourceAlpha" type="matrix" values="0 0 0 0 0 0 0 0 0 0 0 0 0 0 0 0 0 0 255 0"/>
<feOffset dy="4"/>
<feGaussianBlur stdDeviation="2"/>
<feColorMatrix type="matrix" values="0 0 0 0 0 0 0 0 0 0 0 0 0 0 0 0 0 0 0.25 0"/>
<feBlend mode="normal" in2="BackgroundImageFix" result="effect1_dropShadow"/>
<feColorMatrix in="SourceAlpha" type="matrix" values="0 0 0 0 0 0 0 0 0 0 0 0 0 0 0 0 0 0 255 0"/>
<feOffset dy="4"/>
<feGaussianBlur stdDeviation="2"/>
<feColorMatrix type="matrix" values="0 0 0 0 0 0 0 0 0 0 0 0 0 0 0 0 0 0 0.25 0"/>
<feBlend mode="normal" in2="effect1_dropShadow" result="effect2_dropShadow"/>
<feBlend mode="normal" in="SourceGraphic" in2="effect2_dropShadow" result="shape"/>
</filter>
</defs>
</svg>
