<svg width="240" height="64" viewBox="0 0 240 64" version="1.1" xmlns="http://www.w3.org/2000/svg" xmlns:xlink="http://www.w3.org/1999/xlink">
<title>Logo</title>
<desc>Created using Figma</desc>
<g id="Canvas" transform="translate(-2621 474)">
<g id="Logo">
<g id="Rectangle">
<use xlink:href="#path0_fill" transform="translate(2621 -474)" fill="#FFFFFF"/>
</g>
<g id="Unicorn Education">
<use xlink:href="#path1_fill" transform="translate(2621 -462)" fill="#3D3D3D"/>
</g>
<g id="Beta">
<use xlink:href="#path2_fill" transform="translate(2708 -437)" fill="#3D3D3D"/>
</g>
</g>
</g>
<defs>
<path id="path0_fill" d="M 0 0L 240 0L 240 64L 0 64L 0 0Z"/>
<path id="path1_fill" d="M 19.9769 8.248L 19.9769 18.136C 19.9769 23.056 21.6809 25.288 26.3849 25.288C 31.0889 25.288 32.8409 23.056 32.8409 18.136L 32.8409 8.248L 29.7209 8.248L 29.7209 18.544C 29.7209 21.16 28.8089 22.48 26.4089 22.48C 24.0089 22.48 23.0969 21.16 23.0969 18.544L 23.0969 8.248L 19.9769 8.248ZM 39.5472 25L 39.5472 16.72C 39.5472 15.376 40.7712 14.704 42.0432 14.704C 43.5072 14.704 44.1072 15.616 44.1072 17.392L 44.1072 25L 47.1792 25L 47.1792 17.08C 47.1792 13.96 45.7392 12.184 43.1712 12.184C 41.2272 12.184 40.1712 13.216 39.6672 14.56L 39.5472 14.56L 39.5472 12.472L 36.4752 12.472L 36.4752 25L 39.5472 25ZM 52.1206 10.648C 53.3686 10.648 53.9206 10 53.9206 9.112L 53.9206 8.632C 53.9206 7.744 53.3686 7.096 52.1206 7.096C 50.8486 7.096 50.3206 7.744 50.3206 8.632L 50.3206 9.112C 50.3206 10 50.8486 10.648 52.1206 10.648ZM 50.5846 25L 53.6566 25L 53.6566 12.472L 50.5846 12.472L 50.5846 25ZM 62.1614 25.288C 64.5854 25.288 66.3374 24.184 67.1534 21.976L 64.8014 20.848C 64.3454 21.976 63.6254 22.816 62.1614 22.816C 60.4574 22.816 59.5934 21.64 59.5934 19.888L 59.5934 17.608C 59.5934 15.856 60.4574 14.656 62.1614 14.656C 63.4814 14.656 64.2734 15.424 64.5614 16.48L 67.0814 15.352C 66.3374 13.384 64.6814 12.184 62.1614 12.184C 58.4654 12.184 56.3774 14.704 56.3774 18.712C 56.3774 22.744 58.4654 25.288 62.1614 25.288ZM 74.3729 25.288C 77.9729 25.288 80.2049 22.744 80.2049 18.712C 80.2049 14.704 77.9729 12.184 74.3729 12.184C 70.7969 12.184 68.5649 14.704 68.5649 18.712C 68.5649 22.744 70.7969 25.288 74.3729 25.288ZM 74.3729 22.816C 72.7889 22.816 71.7809 21.784 71.7809 19.888L 71.7809 17.56C 71.7809 15.688 72.7889 14.656 74.3729 14.656C 75.9809 14.656 76.9889 15.688 76.9889 17.56L 76.9889 19.888C 76.9889 21.784 75.9809 22.816 74.3729 22.816ZM 86.0003 25L 86.0003 17.32C 86.0003 15.952 87.0803 15.376 89.1443 15.376L 90.1043 15.376L 90.1043 12.472L 89.4323 12.472C 87.4403 12.472 86.4323 13.744 86.1203 15.064L 86.0003 15.064L 86.0003 12.472L 82.9283 12.472L 82.9283 25L 86.0003 25ZM 95.4222 25L 95.4222 16.72C 95.4222 15.376 96.6462 14.704 97.9182 14.704C 99.3822 14.704 99.9822 15.616 99.9822 17.392L 99.9822 25L 103.054 25L 103.054 17.08C 103.054 13.96 101.614 12.184 99.0462 12.184C 97.1022 12.184 96.0462 13.216 95.5422 14.56L 95.4222 14.56L 95.4222 12.472L 92.3502 12.472L 92.3502 25L 95.4222 25ZM 123.363 25L 123.363 22.192L 115.491 22.192L 115.491 17.92L 122.451 17.92L 122.451 15.112L 115.491 15.112L 115.491 11.056L 123.363 11.056L 123.363 8.248L 112.323 8.248L 112.323 25L 123.363 25ZM 134.064 25L 137.136 25L 137.136 7.24L 134.064 7.24L 134.064 14.536L 133.944 14.536C 133.512 13.096 132.144 12.184 130.488 12.184C 127.344 12.184 125.592 14.536 125.592 18.712C 125.592 22.912 127.344 25.288 130.488 25.288C 132.144 25.288 133.488 24.328 133.944 22.912L 134.064 22.912L 134.064 25ZM 131.472 22.744C 129.888 22.744 128.808 21.592 128.808 19.816L 128.808 17.656C 128.808 15.88 129.888 14.704 131.472 14.704C 132.936 14.704 134.064 15.496 134.064 16.72L 134.064 20.704C 134.064 22 132.936 22.744 131.472 22.744ZM 148.166 25L 151.238 25L 151.238 12.472L 148.166 12.472L 148.166 20.752C 148.166 22.096 146.942 22.744 145.718 22.744C 144.254 22.744 143.606 21.808 143.606 20.08L 143.606 12.472L 140.534 12.472L 140.534 20.392C 140.534 23.512 141.974 25.288 144.542 25.288C 146.606 25.288 147.614 24.16 148.046 22.912L 148.166 22.912L 148.166 25ZM 159.732 25.288C 162.156 25.288 163.908 24.184 164.724 21.976L 162.372 20.848C 161.916 21.976 161.196 22.816 159.732 22.816C 158.028 22.816 157.164 21.64 157.164 19.888L 157.164 17.608C 157.164 15.856 158.028 14.656 159.732 14.656C 161.052 14.656 161.844 15.424 162.132 16.48L 164.652 15.352C 163.908 13.384 162.252 12.184 159.732 12.184C 156.036 12.184 153.948 14.704 153.948 18.712C 153.948 22.744 156.036 25.288 159.732 25.288ZM 170.188 25.288C 172.06 25.288 173.428 24.448 173.836 22.84L 173.98 22.84C 174.172 24.136 174.988 25 176.308 25L 178.012 25L 178.012 22.552L 176.764 22.552L 176.764 16.648C 176.764 13.792 174.964 12.184 171.58 12.184C 169.06 12.184 167.596 13.144 166.684 14.584L 168.508 16.216C 169.108 15.352 169.924 14.632 171.364 14.632C 172.996 14.632 173.692 15.448 173.692 16.84L 173.692 17.752L 171.556 17.752C 168.148 17.752 166.204 19.024 166.204 21.592C 166.204 23.824 167.644 25.288 170.188 25.288ZM 171.22 23.056C 170.02 23.056 169.324 22.552 169.324 21.544L 169.324 21.136C 169.324 20.152 170.116 19.6 171.724 19.6L 173.692 19.6L 173.692 21.256C 173.692 22.432 172.588 23.056 171.22 23.056ZM 184.317 25L 186.525 25L 186.525 22.552L 184.149 22.552L 184.149 14.92L 186.717 14.92L 186.717 12.472L 184.149 12.472L 184.149 9.04L 181.389 9.04L 181.389 11.176C 181.389 12.04 181.101 12.472 180.189 12.472L 179.229 12.472L 179.229 14.92L 181.077 14.92L 181.077 21.808C 181.077 23.848 182.205 25 184.317 25ZM 190.917 10.648C 192.165 10.648 192.717 10 192.717 9.112L 192.717 8.632C 192.717 7.744 192.165 7.096 190.917 7.096C 189.645 7.096 189.117 7.744 189.117 8.632L 189.117 9.112C 189.117 10 189.645 10.648 190.917 10.648ZM 189.381 25L 192.453 25L 192.453 12.472L 189.381 12.472L 189.381 25ZM 200.982 25.288C 204.582 25.288 206.814 22.744 206.814 18.712C 206.814 14.704 204.582 12.184 200.982 12.184C 197.406 12.184 195.174 14.704 195.174 18.712C 195.174 22.744 197.406 25.288 200.982 25.288ZM 200.982 22.816C 199.398 22.816 198.39 21.784 198.39 19.888L 198.39 17.56C 198.39 15.688 199.398 14.656 200.982 14.656C 202.59 14.656 203.598 15.688 203.598 17.56L 203.598 19.888C 203.598 21.784 202.59 22.816 200.982 22.816ZM 212.61 25L 212.61 16.72C 212.61 15.376 213.834 14.704 215.106 14.704C 216.57 14.704 217.17 15.616 217.17 17.392L 217.17 25L 220.242 25L 220.242 17.08C 220.242 13.96 218.802 12.184 216.234 12.184C 214.29 12.184 213.234 13.216 212.73 14.56L 212.61 14.56L 212.61 12.472L 209.538 12.472L 209.538 25L 212.61 25Z"/>
<path id="path2_fill" d="M 107.784 14L 111.956 14C 113.454 14 114.434 12.852 114.434 11.242C 114.434 9.716 113.468 8.988 112.558 8.876L 112.558 8.82C 113.286 8.652 114.056 8.05 114.056 6.692C 114.056 5.152 113.132 4.228 111.606 4.228L 107.784 4.228L 107.784 14ZM 108.624 9.282L 111.732 9.282C 112.908 9.282 113.538 9.996 113.538 11.004L 113.538 11.522C 113.538 12.544 112.908 13.258 111.732 13.258L 108.624 13.258L 108.624 9.282ZM 108.624 4.97L 111.522 4.97C 112.586 4.97 113.16 5.6 113.16 6.496L 113.16 7.028C 113.16 7.91 112.586 8.554 111.522 8.554L 108.624 8.554L 108.624 4.97ZM 119.19 14.168C 120.548 14.168 121.542 13.468 121.99 12.418L 121.402 12.026C 121.01 12.964 120.254 13.468 119.232 13.468C 117.762 13.468 116.894 12.418 116.894 10.92L 116.894 10.57L 122.2 10.57L 122.2 10.192C 122.2 8.092 121.01 6.664 119.176 6.664C 117.272 6.664 116.054 8.064 116.054 10.416C 116.054 12.768 117.272 14.168 119.19 14.168ZM 119.176 7.336C 120.464 7.336 121.332 8.33 121.332 9.842L 121.332 9.954L 116.894 9.954L 116.894 9.884C 116.894 8.372 117.79 7.336 119.176 7.336ZM 126.89 14L 126.89 13.3L 125.378 13.3L 125.378 7.532L 127.002 7.532L 127.002 6.832L 125.378 6.832L 125.378 4.83L 124.65 4.83L 124.65 6.286C 124.65 6.692 124.538 6.832 124.146 6.832L 123.334 6.832L 123.334 7.532L 124.58 7.532L 124.58 13.118C 124.58 13.65 124.888 14 125.462 14L 126.89 14ZM 134.659 14L 134.659 13.3L 133.693 13.3L 133.693 9.058C 133.693 7.546 132.755 6.664 131.089 6.664C 129.787 6.664 128.989 7.28 128.597 8.106L 129.101 8.526C 129.493 7.784 130.109 7.364 131.061 7.364C 132.279 7.364 132.895 7.966 132.895 9.142L 132.895 9.982L 131.243 9.982C 129.171 9.982 128.331 10.78 128.331 12.054C 128.331 13.384 129.199 14.168 130.697 14.168C 131.817 14.168 132.545 13.664 132.867 12.866L 132.937 12.866L 132.937 13.118C 132.979 13.65 133.231 14 133.847 14L 134.659 14ZM 130.809 13.482C 129.829 13.482 129.171 13.034 129.171 12.208L 129.171 11.872C 129.171 11.074 129.787 10.584 131.215 10.584L 132.895 10.584L 132.895 11.914C 132.895 12.88 131.971 13.482 130.809 13.482Z"/>
</defs>
</svg>
