<?xml version="1.0" standalone="no"?>
<!DOCTYPE svg PUBLIC "-//W3C//DTD SVG 20010904//EN"
 "http://www.w3.org/TR/2001/REC-SVG-20010904/DTD/svg10.dtd">
<svg version="1.0" xmlns="http://www.w3.org/2000/svg"
 width="512.000000pt" height="512.000000pt" viewBox="0 0 512.000000 512.000000"
 preserveAspectRatio="xMidYMid meet">
<metadata>
Created by potrace 1.11, written by Peter Selinger 2001-2013
</metadata>
<g transform="translate(0.000000,512.000000) scale(0.100000,-0.100000)"
fill="#000000" stroke="none">
<path d="M2011 4794 l-48 -44 1 -2189 1 -2190 43 -43 44 -43 461 -1 462 -1 47
45 c30 28 45 51 43 63 -2 10 1 21 6 24 5 4 7 11 3 16 -11 19 -11 118 0 112 6
-4 5 0 -2 9 -9 11 -10 18 -2 23 6 3 8 11 4 16 -3 5 -7 25 -9 44 -2 24 1 33 8
28 7 -4 7 0 -1 9 -9 11 -10 18 -2 23 6 3 8 11 4 16 -3 5 -7 25 -9 44 -2 24 1
33 8 28 7 -4 7 0 -1 9 -9 11 -10 18 -2 23 6 3 8 11 4 16 -3 5 -7 25 -9 44 -2
24 1 33 8 28 7 -4 7 0 -1 9 -9 11 -10 18 -2 23 6 3 8 11 5 16 -12 18 -12 198
-1 191 6 -3 5 1 -2 10 -9 11 -10 18 -2 23 6 3 8 11 4 16 -3 5 -7 25 -9 44 -2
24 1 33 8 28 7 -4 7 0 -1 9 -9 11 -10 18 -2 23 6 3 8 11 4 16 -3 5 -7 25 -9
44 -2 24 1 33 8 28 7 -4 7 0 -1 9 -9 11 -10 18 -2 23 6 3 8 11 5 16 -12 18
-12 198 -1 191 6 -3 5 1 -2 10 -9 11 -10 18 -2 23 6 3 8 11 4 16 -3 5 -7 25
-9 44 -2 24 1 33 8 28 7 -4 7 0 -1 9 -9 11 -10 18 -2 23 6 3 8 11 4 16 -3 5
-7 25 -9 44 -2 24 1 33 8 28 7 -4 7 0 -1 9 -9 11 -10 18 -2 23 6 3 8 11 4 16
-3 5 -7 25 -9 44 -2 24 1 33 8 28 7 -4 7 0 -1 9 -9 11 -10 18 -2 23 6 3 8 11
4 16 -11 19 -11 118 0 112 6 -4 5 0 -2 9 -9 11 -10 18 -2 23 6 3 8 11 4 16
-11 19 -11 118 0 112 6 -4 5 0 -2 9 -9 11 -10 18 -2 23 6 3 8 11 4 16 -11 19
-11 118 0 112 6 -4 5 0 -2 9 -9 11 -10 18 -2 23 6 3 8 11 4 16 -11 19 -11 118
0 112 6 -4 5 0 -2 9 -9 11 -10 18 -2 23 6 3 8 11 4 16 -11 19 -11 118 0 112 6
-4 5 0 -2 9 -9 11 -10 18 -2 23 6 3 8 11 4 16 -11 19 -11 118 0 112 6 -4 5 0
-2 9 -9 11 -10 18 -2 23 6 3 8 11 4 16 -11 19 -11 118 0 112 6 -4 5 0 -2 9 -9
11 -10 18 -2 23 6 3 8 11 4 16 -3 5 -7 25 -9 44 -2 24 1 33 8 28 7 -4 7 0 -1
9 -9 11 -10 18 -2 23 6 3 8 11 4 16 -3 5 -7 25 -9 44 -2 24 1 33 8 28 7 -4 7
0 -1 9 -9 11 -10 18 -2 23 6 3 8 11 4 16 -3 5 -7 25 -9 44 -2 24 1 33 8 28 7
-4 7 0 -1 9 -9 11 -10 18 -2 23 6 3 8 11 5 16 -12 18 -12 198 -1 191 6 -3 5 1
-2 10 -9 11 -10 18 -2 23 6 3 8 11 4 16 -3 5 -7 25 -9 44 -2 24 1 33 8 28 7
-4 7 0 -1 9 -9 11 -10 18 -2 23 6 3 8 11 4 16 -3 5 -7 25 -9 44 -2 24 1 33 8
28 7 -4 7 0 -1 9 -9 11 -10 18 -2 23 6 3 8 11 5 16 -12 18 -12 198 -1 191 6
-3 5 1 -2 10 -9 11 -10 18 -2 23 6 3 8 11 4 16 -3 5 -7 25 -9 44 -2 24 1 33 8
28 7 -4 7 0 -1 9 -9 11 -10 18 -2 23 6 3 8 11 4 16 -3 5 -7 25 -9 44 -2 24 1
33 8 28 7 -4 7 0 -1 9 -9 11 -10 18 -2 23 6 3 8 11 4 16 -3 5 -7 25 -9 44 -2
24 1 33 8 28 7 -4 7 0 -1 9 -9 11 -10 18 -2 23 6 3 8 11 4 16 -10 17 -11 118
-1 112 5 -3 4 4 -2 14 -6 11 -8 22 -6 25 3 2 -16 24 -41 49 l-45 44 -461 1
-460 1 -47 -43z"/>
<path d="M3202 4830 c-4 -3 -8 -189 -7 -415 l0 -410 130 -1 c72 -1 132 -2 135
-4 3 -1 19 -4 35 -5 59 -6 93 -15 160 -45 110 -50 173 -168 191 -360 7 -83 5
-237 -5 -263 -5 -14 -8 -27 -5 -29 13 -13 -58 -170 -93 -206 -7 -7 -16 -19
-20 -25 -12 -19 -93 -80 -93 -70 0 4 -4 3 -8 -2 -17 -24 -132 -62 -213 -70
-57 -6 -180 -8 -198 -4 -13 3 -15 -46 -16 -346 l0 -351 140 -1 c77 0 161 -3
188 -7 68 -10 175 -44 222 -71 22 -13 44 -25 50 -26 17 -7 86 -84 102 -114 9
-16 21 -33 27 -37 6 -4 8 -8 4 -8 -4 0 -1 -15 7 -34 8 -18 17 -46 21 -62 8
-36 13 -276 6 -288 -3 -5 -6 -25 -8 -44 -9 -93 -59 -199 -127 -265 -69 -67
-200 -124 -302 -131 -17 -1 -35 -4 -40 -7 -6 -3 -45 -5 -87 -4 -43 0 -78 -4
-78 -8 0 -4 -8 -3 -18 2 -13 7 -23 6 -30 -1 -7 -7 -12 -8 -12 -2 0 5 -15 9
-32 9 l-33 -1 -1 -409 c0 -226 3 -415 7 -420 11 -15 338 -9 519 9 99 10 156
17 170 21 14 4 53 12 105 21 28 5 107 25 125 31 8 4 25 8 37 10 13 2 44 13 70
24 27 12 59 23 73 26 13 2 27 8 30 12 3 4 25 15 50 25 25 10 47 21 50 24 3 4
25 18 50 31 25 13 55 33 68 44 12 11 22 18 22 15 0 -23 188 166 235 237 22 33
42 62 45 65 10 10 70 136 90 188 25 65 59 196 71 271 17 105 31 376 21 395 -3
5 -6 39 -7 75 -1 36 -5 73 -8 81 -3 8 -8 36 -11 63 -3 26 -7 51 -10 55 -3 5
-7 21 -10 36 -13 73 -89 250 -123 289 -9 9 -13 17 -10 17 4 0 -1 9 -10 19 -10
11 -38 43 -63 73 -56 67 -132 129 -231 189 l-77 46 79 83 c44 46 79 86 79 90
0 4 9 18 21 31 50 58 130 218 164 329 9 30 21 66 25 80 5 14 11 41 14 60 3 19
8 46 11 60 23 121 23 339 0 490 -2 14 -6 39 -8 55 -3 17 -10 50 -17 75 -7 25
-13 52 -15 60 -5 24 -37 104 -47 114 -4 6 -8 16 -8 24 0 7 -7 20 -15 29 -8 8
-13 19 -10 24 4 5 1 9 -4 9 -6 0 -11 7 -11 15 0 8 -4 15 -10 15 -5 0 -10 6
-10 13 0 6 -17 32 -38 57 -159 191 -356 300 -675 375 -37 8 -72 13 -78 10 -5
-4 -9 -2 -9 2 0 5 -8 9 -17 10 -10 0 -45 4 -78 8 -183 22 -594 39 -613 25z"/>
<path d="M1377 3564 c-3 -3 -36 -7 -74 -9 -68 -3 -125 -10 -173 -21 -14 -3
-34 -7 -45 -9 -43 -7 -137 -36 -173 -51 -20 -10 -40 -18 -43 -18 -14 -2 -145
-72 -157 -84 -8 -6 -23 -17 -34 -23 -46 -24 -238 -208 -238 -227 0 -6 -4 -12
-8 -14 -15 -5 -86 -119 -129 -203 -59 -117 -128 -318 -149 -432 -2 -13 -6 -35
-9 -50 -3 -16 -8 -44 -11 -63 -3 -19 -7 -46 -10 -60 -8 -47 -17 -155 -18 -202
0 -27 -3 -48 -6 -48 -7 0 -4 -314 4 -415 15 -194 39 -366 66 -464 5 -20 10
-39 10 -43 0 -4 16 -54 36 -110 78 -229 196 -417 335 -533 32 -26 142 -101
152 -103 4 -1 20 -8 35 -16 33 -17 152 -56 185 -61 12 -2 42 -7 67 -11 110
-18 301 -1 432 39 26 8 49 12 52 9 4 -3 6 0 6 6 0 7 8 12 17 12 26 0 173 75
258 131 l75 49 0 391 0 390 -43 -43 c-121 -123 -225 -175 -357 -179 -122 -3
-211 55 -270 177 -38 78 -56 148 -76 284 -19 138 -25 472 -10 630 4 47 8 101
9 120 1 19 5 37 8 40 4 3 9 21 12 40 13 98 59 209 116 280 19 25 41 48 48 53
6 4 19 14 28 23 8 8 15 12 15 8 0 -3 6 -2 13 3 19 16 110 44 143 44 16 0 52 1
79 1 85 1 150 -13 240 -52 l40 -18 3 366 c2 391 4 376 -48 388 -14 3 -34 9
-45 14 -32 14 -67 23 -140 35 -16 3 -37 8 -46 11 -9 2 -46 6 -82 8 -37 3 -71
7 -75 10 -5 3 -12 3 -15 0z"/>
</g>
</svg>
